# xmcd CD Database Entry
#
# Track frame offsets:
# 150
# 15250
# 33480
# 54560
# 77120
# 95632
# 115666
# 133531
# 149751
# 166074
# 182243
# 203214
#
# Disc length: 3042 seconds
#
# Revision: 1
# Processed by: cddbd v1.4PL0 Copyright (c) Steve Scherf et al.
# Submitted via: tcd 2.0b
#
DISCID=a00be00c
DTITLE=Anastacia - Not That Kind
DYEAR=2000
DGENRE=Jazz
TTITLE0=Not That Kind
TTITLE1=I'm Outta Love
TTITLE2=Cowboys and Kisses
TTITLE3=Who's Gonna Stop The Rain
TTITLE4=Love Is Alive
TTITLE5=I Ask Of You
TTITLE6=Wishing Well
TTITLE7=Made For Lovin' You
TTITLE8=Black Roses
TTITLE9=Yo Trippin'
TTITLE10=One More Chance
TTITLE11=Same Old Story
EXTD=YEAR: 2000 ID3G: 8
EXTT0=
EXTT1=
EXTT2=
EXTT3=
EXTT4=
EXTT5=
EXTT6=
EXTT7=
EXTT8=
EXTT9=
EXTT10=
EXTT11=
PLAYORDER=
